:SAMPLES-PER-SECOND 30
:FULLY-SPECIFIED
:DEGREES
678
root  -16.8753 27.9383 -18.6529 155.641 -11.9396 84.6129
Spine  8.06799 16.5448 11.3285
Spine1  3.64484 -16.8086 -0.272926
Neck  3.97569e-016 0 -2.38542e-015
Head  -29.5768 -0.255496 10.7758
R_Clavicle  2.72207 13.1918 9.72013
R_UpperArm  50.6417 37.7274 10.4929
R_Forearm  19.4366 0.593649 -0.519712
R_Hand  -0.605233 9.4464 -16.3095
L_Clavicle  -0.443841 13.2506 2.87227
L_UpperArm  -49.9324 19.7585 38.2061
L_Forearm  -5.80929 23.1863 29.6011
L_Hand  -0.170485 -2.49558 -6.65549
L_Thigh  3.64997 -16.9979 21.9962
L_Calf  0.0693713 1.50972 -10.9089
L_Foot  8.35708 5.33288 26.2756
L_Toe0  0.505147 0.0344461 -6.1361
R_Thigh  -9.01078 -8.07403 -16.7357
R_Calf  4.47804 1.62581 5.01103
R_Foot  7.1164 18.5599 22.6352
R_Toe0  1.55695 -0.880255 1.48116
679
root  -16.2703 28.4254 -18.6893 153.589 -12.0674 86.1242
Spine  7.22006 13.0676 10.3243
Spine1  3.93141 -11.0284 -0.572237
Neck  3.97569e-016 0 -2.38542e-015
Head  -27.2162 -0.837735 13.8177
R_Clavicle  1.98503 8.65487 8.06029
R_UpperArm  46.3952 27.4328 2.93484
R_Forearm  16.2009 -2.92913 2.40946
R_Hand  -0.664349 10.9268 -17.074
L_Clavicle  -0.403196 13.1573 1.31299
L_UpperArm  -47.3168 25.2075 40.9453
L_Forearm  -7.5906 26.8461 36.6196
L_Hand  -0.137824 -1.58173 -3.75787
L_Thigh  2.03141 -16.6779 18.2936
L_Calf  -0.165687 1.09413 -7.74509
L_Foot  8.66876 6.14117 25.9933
L_Toe0  0.505152 0.034446 -6.1361
R_Thigh  -4.9018 -10.6931 -7.71218
R_Calf  1.88746 -2.83103 -8.79587
R_Foot  4.8931 16.158 1.37337
R_Toe0  10.7381 -5.04433 10.3745
680
root  -15.3905 28.7015 -18.6179 149.568 -11.2944 89.4456
Spine  6.40921 9.12405 10.055
Spine1  4.17266 -5.50933 -1.13174
Neck  3.97569e-016 0 -2.38542e-015
Head  -23.1921 -1.92876 17.5367
R_Clavicle  1.2422 1.83709 5.94978
R_UpperArm  44.6036 17.3377 1.17062
R_Forearm  16.1785 -10.0593 8.44811
R_Hand  -0.723812 11.5216 -17.5844
L_Clavicle  -0.375674 13.5865 -0.292656
L_UpperArm  -34.3404 28.7933 45.1541
L_Forearm  -9.24799 29.4926 43.8096
L_Hand  -0.024732 0.879421 -0.482919
L_Thigh  -0.289365 -16.0277 12.5702
L_Calf  -1.36288 0.821951 -5.6454
L_Foot  8.92272 6.17829 26.7773
L_Toe0  0.505155 0.034446 -6.1361
R_Thigh  -3.67354 -12.1605 -0.392102
R_Calf  -1.98475 -5.75303 -18.1702
R_Foot  3.45257 11.9671 -7.28933
R_Toe0  12.5123 -4.47201 1.27506
681
root  -14.2827 28.8936 -18.4574 144.283 -8.8345 92.2907
Spine  6.02795 8.04623 8.99376
Spine1  4.23554 -2.38243 -0.996006
Neck  3.97569e-016 0 -2.38542e-015
Head  -18.5158 -2.77591 21.7381
R_Clavicle  0.753491 -6.53035 4.45824
R_UpperArm  44.2397 9.35511 6.37557
R_Forearm  15.8395 -16.7588 14.4613
R_Hand  -1.04925 12.1226 -19.6621
L_Clavicle  -0.41044 14.6904 -0.394435
L_UpperArm  -27.1651 30.6152 49.3404
L_Forearm  -4.14642 32.6223 46.3661
L_Hand  -0.0449777 2.16483 -0.563298
L_Thigh  -1.40259 -14.9219 6.22897
L_Calf  -4.70443 0.595715 -4.09329
L_Foot  8.49865 4.65501 27.9298
L_Toe0  0.495397 0.0357376 -6.20548
R_Thigh  -2.31189 -10.2179 5.74303
R_Calf  -7.14836 -6.71126 -21.3665
R_Foot  3.50257 11.6581 0.206041
R_Toe0  2.15873 -0.824568 -4.21363
682
root  -13.0691 29.0168 -18.1916 138.692 -5.91718 93.1273
Spine  5.68336 8.97186 6.4197
Spine1  4.09232 -0.409032 -0.846565
Neck  3.97569e-016 0 -2.38542e-015
Head  -13.9186 -3.45883 26.5596
R_Clavicle  0.528214 -14.8825 3.67909
R_UpperArm  43.1509 4.17284 17.2948
R_Forearm  17.8126 -20.7172 18.2868
R_Hand  -1.66966 12.243 -23.3996
L_Clavicle  -0.46346 16.4959 0.95624
L_UpperArm  -25.1677 32.4408 53.0809
L_Forearm  -2.01146 33.1157 46.8465
L_Hand  -0.120489 1.29827 -1.92267
L_Thigh  -0.785532 -13.9967 1.31794
L_Calf  -9.32298 0.454384 -3.34836
L_Foot  7.17589 1.9033 28.1972
L_Toe0  0.594119 0.0244128 -5.60174
R_Thigh  1.45539 -6.46948 13.2078
R_Calf  -8.07295 -5.64219 -17.8137
R_Foot  5.26608 16.9653 6.84965
R_Toe0  -10.1829 1.18382 -9.85173
683
root  -11.8817 29.0042 -17.7841 133.815 -3.04074 93.7366
Spine  4.95399 8.89582 3.70701
Spine1  3.73319 3.0142 -0.536552
Neck  3.97569e-016 0 -2.38542e-015
Head  -10.2015 -4.27485 30.7857
R_Clavicle  0.444655 -20.7825 3.78302
R_UpperArm  42.4903 1.28648 31.1307
R_Forearm  24.09 -21.9846 19.5767
R_Hand  -2.20069 12.0986 -26.6398
L_Clavicle  -0.466575 18.209 2.46458
L_UpperArm  -25.1968 34.9468 56.6434
L_Forearm  -5.46424 31.2685 45.4814
L_Hand  -0.14083 -0.343852 -3.06828
L_Thigh  0.141915 -13.6648 -2.67619
L_Calf  -12.8735 0.610155 -4.67501
L_Foot  6.3056 0.569189 27.4981
L_Toe0  0.91653 -0.0344065 -2.42327
R_Thigh  10.0047 -3.6843 18.9469
R_Calf  4.24715 -2.48842 -7.74605
R_Foot  4.66982 14.9163 2.04631
R_Toe0  -8.26929 0.75325 -10.4122
684
root  -10.7684 28.6597 -17.1573 130.187 0.360888 96.6666
Spine  3.63535 6.49387 2.17086
Spine1  3.17092 6.8843 1.28002
Neck  3.97569e-016 0 -2.38542e-015
Head  -7.79346 -4.3231 33.1011
R_Clavicle  0.401349 -23.34 4.14789
R_UpperArm  43.4678 -0.363889 44.4901
R_Forearm  31.7713 -22.179 19.766
R_Hand  -2.50262 11.954 -28.5231
L_Clavicle  -0.459299 18.7994 2.93081
L_UpperArm  -26.1615 36.576 59.2884
L_Forearm  -8.82275 29.0618 41.9561
L_Hand  -0.150364 -2.08011 -4.99784
L_Thigh  -0.561269 -13.6431 -8.87952
L_Calf  -13.4181 0.867558 -6.59345
L_Foot  6.21529 -0.173891 28.6893
L_Toe0  0.693876 -0.0782749 0.163424
R_Thigh  19.5058 -2.68473 18.0368
R_Calf  22.2439 0.994721 3.16214
R_Foot  -1.35542 -4.21483 -0.0229056
R_Toe0  -0.750285 -0.234711 -13.1327
685
root  -9.78039 28.2673 -16.4427 127.478 4.0272 99.5523
Spine  2.2381 4.90908 0.696532
Spine1  2.43014 8.79601 4.22407
Neck  3.97569e-016 0 -2.38542e-015
Head  -6.36716 -3.22549 34.3452
R_Clavicle  0.394179 -23.4198 4.6526
R_UpperArm  44.5791 -0.446569 55.2266
R_Forearm  35.9695 -24.1707 21.0086
R_Hand  -2.54162 11.9088 -28.7822
L_Clavicle  -0.46269 18.8033 2.80382
L_UpperArm  -27.6681 35.3489 59.2063
L_Forearm  -9.58029 27.1821 37.0001
L_Hand  -0.126583 -3.55408 -7.66946
L_Thigh  -3.66839 -12.6053 -15.6065
L_Calf  -12.5977 0.987635 -7.4673
L_Foot  6.78306 -0.190551 31.0417
L_Toe0  0.324115 -0.0609469 1.55317
R_Thigh  22.8558 -2.0366 14.7366
R_Calf  30.6385 1.35955 4.48594
R_Foot  -4.09127 -10.2508 5.57005
R_Toe0  -1.75379 -0.281727 -17.6636
686
root  -9.13706 28.1227 -16.0893 124.205 6.25441 99.0433
Spine  1.32791 5.9854 -0.709792
Spine1  1.42848 8.94687 5.10376
Neck  3.97569e-016 0 -2.38542e-015
Head  -5.24728 -2.21389 36.0046
R_Clavicle  0.468331 -20.7565 5.62213
R_UpperArm  48.4849 1.31217 61.4446
R_Forearm  31.8441 -29.4096 23.7642
R_Hand  -2.06248 12.4574 -25.6965
L_Clavicle  -0.451739 19.3997 3.24345
L_UpperArm  -29.024 31.5704 54.8272
L_Forearm  -10.2911 24.3477 31.4438
L_Hand  -0.132078 -3.89282 -9.63904
L_Thigh  -9.05197 -10.1894 -18.4319
L_Calf  -12.207 0.924929 -6.98505
L_Foot  7.42857 0.215133 32.7115
L_Toe0  -0.39089 0.0263342 2.21934
R_Thigh  21.306 0.535378 13.4328
R_Calf  33.118 0.534403 2.01922
R_Foot  -4.43201 -10.2777 6.86709
R_Toe0  -1.68535 -0.268415 -17.265
687
root  -8.93437 28.3806 -16.4692 119.575 5.68258 95.5052
Spine  0.943792 7.22867 -0.438468
Spine1  0.565805 9.9083 2.54067
Neck  3.97569e-016 0 -2.38542e-015
Head  -3.72586 -1.92002 37.228
R_Clavicle  0.687227 -15.7659 6.60262
R_UpperArm  55.2564 4.90286 62.6308
R_Forearm  23.0688 -34.6702 28.6198
R_Hand  -0.924014 13.3465 -19.0181
L_Clavicle  -0.41902 20.1892 4.06284
L_UpperArm  -32.0454 26.7865 46.2315
L_Forearm  -10.9542 20.051 24.9222
L_Hand  -0.208981 -3.05973 -9.67985
L_Thigh  -15.0337 -8.11824 -16.4995
L_Calf  -12.4497 0.5528 -4.22437
L_Foot  7.84101 0.566959 33.522
L_Toe0  -0.156658 0.0155037 0.308582
R_Thigh  21.9723 2.90313 14.9619
R_Calf  29.0084 1.02672 3.43078
R_Foot  -5.5977 -14.0807 6.48377
R_Toe0  -0.795287 -0.294883 -16.909
688
root  -9.14914 29.189 -17.5354 113.98 3.60704 90.3473
Spine  1.25229 7.56861 2.46518
Spine1  0.21058 12.4908 -0.679564
Neck  3.97569e-016 0 -2.38542e-015
Head  -0.850476 -0.924909 35.8493
R_Clavicle  0.816931 -11.7308 6.26117
R_UpperArm  60.4049 11.191 61.6338
R_Forearm  19.7896 -37.0331 34.4442
R_Hand  0.204847 13.7193 -12.7888
L_Clavicle  -0.423556 19.2344 4.1879
L_UpperArm  -36.9059 20.4735 36.3021
L_Forearm  -11.5253 13.9651 16.6813
L_Hand  -0.265042 -2.11318 -8.86061
L_Thigh  -18.8496 -6.41162 -12.3335
L_Calf  -13.9676 -0.331845 2.18188
L_Foot  8.46367 2.00702 32.8059
L_Toe0  0.262753 0.0188858 -3.79074
R_Thigh  25.2612 4.95342 17.3098
R_Calf  12.1267 3.09237 9.75423
R_Foot  -3.92441 -15.9467 -2.79857
R_Toe0  0.220333 -0.235753 -14.812
